name C:\Users\u0101727\Documents\MyRepositories\paper-ad\predictivesimulations_2d/Results/PredSim_2D/IK_c22.mot
datacolumns 11
datarows 38
range 0.00000000 0.35495854
endheader
time	pelvis_tilt	pelvis_tx	pelvis_ty	hip_flexion_l	hip_flexion_r	knee_angle_l	knee_angle_r	ankle_angle_l	ankle_angle_r	lumbar_extension	
          0.00000000	        -15.13986495	          0.00000000	          0.88364215	          0.96210225	         38.07317781	        -16.23119738	        -10.56696825	          5.77061119	         13.84210494	          9.64357128	
          0.00959347	        -15.10182414	          0.01477744	          0.88285561	          0.86830349	         37.58868960	        -17.72465139	         -9.96183163	          4.57032310	         13.39403804	          9.74044610	
          0.01918695	        -15.05273358	          0.02981832	          0.88201811	          0.85324848	         37.00901341	        -19.38561812	         -9.64273136	          3.26624565	         12.89389732	          9.85036050	
          0.02878042	        -14.99515063	          0.04510560	          0.88115304	          0.92417727	         36.26608137	        -21.21098745	         -9.73022542	          1.83839630	         12.33961194	          9.97728744	
          0.03837390	        -14.93728907	          0.06045341	          0.88038732	          1.08572117	         35.40305234	        -23.18218458	        -10.04462688	          0.37215499	         11.77048710	         10.11180389	
          0.04796737	        -14.89011990	          0.07552110	          0.87995040	          1.36472230	         34.54511202	        -25.20675843	        -10.32499535	         -0.91097173	         11.22048189	         10.23066523	
          0.05756084	        -14.86220465	          0.09006157	          0.88010403	          1.78944125	         33.72950381	        -27.14450031	        -10.58346651	         -1.91299666	         10.68948696	         10.31995797	
          0.06715432	        -14.85588754	          0.10401186	          0.88100400	          2.35578440	         32.95869117	        -28.93277281	        -10.81491609	         -2.66330332	         10.19210939	         10.37854254	
          0.07674779	        -14.86647945	          0.11745519	          0.88260956	          3.04697691	         32.21414672	        -30.59227026	        -11.00735002	         -3.17133150	          9.74464408	         10.41255757	
          0.08634127	        -14.88739106	          0.13051576	          0.88471096	          3.84248848	         31.47475481	        -32.15211080	        -11.15184304	         -3.44982855	          9.35860036	         10.42902950	
          0.09593474	        -14.91325739	          0.14330105	          0.88707561	          4.72676604	         30.72370541	        -33.62988827	        -11.24156781	         -3.51435991	          9.04024218	         10.43327150	
          0.10552822	        -14.94063920	          0.15588530	          0.88952081	          5.68777677	         29.95154486	        -35.03407974	        -11.27459198	         -3.37995938	          8.79115639	         10.42847933	
          0.11512169	        -14.96764336	          0.16831549	          0.89192293	          6.71650903	         29.15374691	        -36.36600803	        -11.25135772	         -3.06295191	          8.61032770	         10.41641155	
          0.12471516	        -14.99330732	          0.18062167	          0.89420276	          7.80556476	         28.32876420	        -37.62255324	        -11.17386618	         -2.58008112	          8.49511339	         10.39807627	
          0.13430864	        -15.01714168	          0.19282416	          0.89630991	          8.94876431	         27.47696746	        -38.79883495	        -11.04558750	         -1.94820434	          8.44174872	         10.37408918	
          0.14390211	        -15.03888072	          0.20493804	          0.89821194	         10.14055780	         26.60000730	        -39.88876760	        -10.87137745	         -1.18427335	          8.44570400	         10.34490299	
          0.15349559	        -15.05835324	          0.21697569	          0.89988789	         11.37560318	         25.70048477	        -40.88555707	        -10.65726700	         -0.30545704	          8.50184477	         10.31092310	
          0.16308906	        -15.07543402	          0.22894803	          0.90132510	         12.64846993	         24.78170543	        -41.78206051	        -10.41027615	          0.67084786	          8.60457611	         10.27256464	
          0.17268253	        -15.09003489	          0.24086456	          0.90251868	         13.95377119	         23.84763583	        -42.57069489	        -10.13841902	          1.72706738	          8.74805004	         10.23022130	
          0.18227601	        -15.10214122	          0.25273290	          0.90347191	         15.28652437	         22.90270726	        -43.24324493	         -9.84949435	          2.84554009	          8.92640639	         10.18421151	
          0.19186948	        -15.11187638	          0.26456032	          0.90419540	         16.64077247	         21.95082418	        -43.79220111	         -9.55053831	          4.00846900	          9.13318427	         10.13500938	
          0.20146296	        -15.11940346	          0.27635314	          0.90470606	         18.01061731	         20.99615656	        -44.20997065	         -9.24916726	          5.19800859	          9.36068887	         10.08305178	
          0.21105643	        -15.12486356	          0.28811682	          0.90502471	         19.39064162	         20.04327890	        -44.48864259	         -8.95319468	          6.39633969	          9.60086843	         10.02867116	
          0.22064990	        -15.12840249	          0.29985737	          0.90517278	         20.77432085	         19.09698724	        -44.62129277	         -8.67099589	          7.58566272	          9.84578319	          9.97224971	
          0.23024338	        -15.13024036	          0.31158184	          0.90517053	         22.15474216	         18.16053419	        -44.60231814	         -8.40820560	          8.74831133	         10.08810561	          9.91431968	
          0.23983685	        -15.13069429	          0.32329860	          0.90503609	         23.52497604	         17.23471974	        -44.42770170	         -8.16616988	          9.86692006	         10.32119458	          9.85562979	
          0.24943033	        -15.13004672	          0.33501628	          0.90478502	         24.87728725	         16.32097555	        -44.09521139	         -7.94760907	         10.92476518	         10.53827803	          9.79689623	
          0.25902380	        -15.12854099	          0.34674321	          0.90443041	         26.20357507	         15.42144150	        -43.60414977	         -7.75617030	         11.90639893	         10.73327759	          9.73875425	
          0.26861728	        -15.12641967	          0.35848845	          0.90398292	         27.49503523	         14.53767209	        -42.95751321	         -7.59492012	         12.79842793	         10.90155013	          9.68194067	
          0.27821075	        -15.12394146	          0.37026028	          0.90345172	         28.74382113	         13.67063478	        -42.15955881	         -7.46579015	         13.59063073	         11.04015837	          9.62712492	
          0.28780422	        -15.12137095	          0.38206554	          0.90284482	         29.94347851	         12.82117886	        -41.21499172	         -7.36996870	         14.27690705	         11.14797728	          9.57482228	
          0.29739770	        -15.11894727	          0.39391045	          0.90216873	         31.08838807	         11.99001941	        -40.13042815	         -7.30910960	         14.85566796	         11.22573918	          9.52546378	
          0.30699117	        -15.11689096	          0.40579937	          0.90142882	         32.17561127	         11.17747753	        -38.91133580	         -7.28410923	         15.32974051	         11.27624975	          9.47923751	
          0.31658465	        -15.11541356	          0.41773591	          0.90062882	         33.20376647	         10.38343600	        -37.56274315	         -7.29537236	         15.70540353	         11.30397308	          9.43621134	
          0.32617812	        -15.11473370	          0.42972341	          0.89977069	         34.17228340	          9.60764674	        -36.09005356	         -7.34290983	         15.99103338	         11.31423611	          9.39636043	
          0.33577159	        -15.11513503	          0.44176642	          0.89885454	         35.07965274	          8.84948516	        -34.50071472	         -7.42613352	         16.19577741	         11.31229209	          9.35976273	
          0.34536507	        -15.11700680	          0.45387140	          0.89787922	         35.92238783	          8.10792808	        -32.80242190	         -7.54403141	         16.32874936	         11.30172685	          9.32672624	
          0.35495854	        -15.12066839	          0.46604647	          0.89684358	         36.69593462	          7.38263824	        -31.00672139	         -7.69691823	         16.39873082	         11.28335888	          9.29763425	
